HIERARCHY
ROOT Hips
{
  OFFSET 0 0 0
  CHANNELS 6 Xposition Yposition Zposition Zrotation Xrotation Yrotation
  JOINT LeftHip
  {
    OFFSET 3.43 1.42109e-014 5.68434e-014
    CHANNELS 3 Zrotation Xrotation Yrotation
    JOINT LeftKnee
    {
      OFFSET -1.63425e-013 -18.47 -4.26326e-014
      CHANNELS 3 Zrotation Xrotation Yrotation
      JOINT LeftAnkle
      {
        OFFSET -3.90088e-012 -17.95 -2.089e-012
        CHANNELS 3 Zrotation Xrotation Yrotation
        End Site
        {
          OFFSET 0 -3.12 0
        }
      }
    }
  }
  JOINT RightHip
  {
    OFFSET -3.43 0 4.26326e-014
    CHANNELS 3 Zrotation Xrotation Yrotation
    JOINT RightKnee
    {
      OFFSET 2.27374e-013 -18.47 3.69482e-013
      CHANNELS 3 Zrotation Xrotation Yrotation
      JOINT RightAnkle
      {
        OFFSET -5.50671e-012 -17.95 -3.11218e-012
        CHANNELS 3 Zrotation Xrotation Yrotation
        End Site
        {
          OFFSET 0 -3.12 0
        }
      }
    }
  }
  JOINT Chest
  {
    OFFSET -6.39488e-014 4.57 -9.9476e-014
    CHANNELS 3 Zrotation Xrotation Yrotation
    JOINT Chest2
    {
      OFFSET 7.10543e-015 6.57 -2.84217e-014
      CHANNELS 3 Zrotation Xrotation Yrotation
      JOINT LeftCollar
      {
        OFFSET 1.06 4.19 1.76
        CHANNELS 3 Zrotation Xrotation Yrotation
        JOINT LeftShoulder
        {
          OFFSET 5.81 0 7.10543e-014
          CHANNELS 3 Zrotation Xrotation Yrotation
          JOINT LeftElbow
          {
            OFFSET 1.77636e-013 -12.08 6.11067e-013
            CHANNELS 3 Zrotation Xrotation Yrotation
            JOINT LeftWrist
            {
              OFFSET 1.31131e-011 -9.82 2.55795e-012
              CHANNELS 3 Zrotation Xrotation Yrotation
              End Site
              {
                OFFSET 0 -7.37 0
              }
            }
          }
        }
      }
      JOINT RightCollar
      {
        OFFSET -1.06 4.19 1.76
        CHANNELS 3 Zrotation Xrotation Yrotation
        JOINT RightShoulder
        {
          OFFSET -6.06 -7.10543e-015 -1.42109e-014
          CHANNELS 3 Zrotation Xrotation Yrotation
          JOINT RightElbow
          {
            OFFSET -3.12639e-013 -11.08 -5.54223e-013
            CHANNELS 3 Zrotation Xrotation Yrotation
            JOINT RightWrist
            {
              OFFSET 4.69313e-012 -9.82 -1.12408e-011
              CHANNELS 3 Zrotation Xrotation Yrotation
              End Site
              {
                OFFSET 0 -7.14001 0
              }
            }
          }
        }
      }
      JOINT Neck
      {
        OFFSET -1.42109e-014 4.05 -1.42109e-014
        CHANNELS 3 Zrotation Xrotation Yrotation
        JOINT Head
        {
          OFFSET -7.10543e-015 5.19 -2.84217e-014
          CHANNELS 3 Zrotation Xrotation Yrotation
          End Site
          {
            OFFSET 0 4.14001 0
          }
        }
      }
    }
  }
}
MOTION
Frames:	11
Frame Time:	0.0333333
-1.52285 39.1185 -20.9483 -6.97662 6.39806 -135.556 -4.50215 4.25838 -5.87885 -2.92108 20.682 5.46575 5.00107 -15.5372 0.682693 -1.94102 -13.6775 -1.64647 0.0210127 52.116 -11.6672 -1.8756 -8.93267 -0.146517 0.194462 3.55183 -0.875353 -0.52748 5.24365 -1.02927 9.97419 0.0661131 1.52202 8.85259 -17.2351 0.293771 -8.21267 -13.5165 -42.4974 10.4732 -0.0833228 0.00763663 -10.4509 0.483843 -4.16282 -4.72433 -33.654 15.922 173.39 -69.5309 -105.179 -44.7676 -7.08895 -2.92261 7.84785 -2.92577 -0.538848 -4.6693 1.34379 3.70972 
-2.08575 39.0626 -21.7331 -6.36247 6.0736 -134.318 -3.86193 5.02333 -5.74768 -2.64562 20.7725 3.99124 4.9956 -16.9228 0.743617 -2.41931 -15.4136 -1.41801 0.464434 41.3358 -11.5795 -1.5042 -8.26414 -0.108675 0.470218 3.50668 -1.33775 -0.317254 5.15489 -1.6011 9.99125 0.0620477 1.42355 8.23992 -18.6515 -0.683926 -8.6241 -15.3275 -43.0197 10.3142 -0.34407 0.0310532 -10.2212 0.476013 -4.17455 -3.30905 -34.1325 15.2339 176.249 -69.453 -105.73 -46.6522 -5.67655 -2.44941 8.04868 -3.35997 -0.479488 -4.95491 1.46005 4.05764 
-2.67233 38.9364 -22.5714 -6.1065 5.61595 -133.3 -3.56956 5.94707 -5.74297 -2.41923 21.103 2.91676 4.9026 -18.5928 0.802993 -3.25915 -15.4994 -1.1895 0.368601 28.031 -11.0284 -0.149585 -5.42267 -0.00708393 0.514828 3.46898 -1.67181 -0.378665 5.07042 -1.9665 10.0197 0.0580938 1.32529 7.8522 -19.6601 -1.42214 -8.97412 -16.8477 -43.6118 10.1427 -0.563174 0.0499784 -9.71666 0.453508 -4.07556 -0.472854 -35.0122 13.9672 179.912 -68.0995 -124.819 -43.847 -2.86779 -1.15441 8.25293 -3.6958 -0.372869 -5.18879 1.67756 4.41426 
-3.31247 38.7514 -23.5035 -6.2519 4.93526 -132.485 -3.52693 7.29943 -5.6971 -2.45618 21.1684 2.03836 4.86568 -20.3316 0.872985 -4.21826 -14.9141 -0.774069 -0.370063 15.941 -10.3744 2.21752 -4.75465 0.092074 0.184522 3.37284 -1.88369 -0.640108 4.92091 -2.16102 10.017 0.053757 1.227 7.71374 -20.15 -1.84346 -9.23254 -17.9081 -44.1727 10.0191 -0.72591 0.0636315 -9.18318 0.43468 -4.08053 1.19838 -36.0674 13.6966 -179.704 -66.539 -145.14 -40.7158 -0.191412 -0.0710256 8.40181 -3.89634 -0.217411 -5.33119 1.98411 4.74498 
-4.03296 38.4975 -24.5776 -6.71575 4.18032 -131.845 -3.55431 9.04758 -5.52713 -2.66277 21.1656 1.12477 4.85039 -22.2295 0.953456 -4.84952 -16.5524 -0.111077 -1.54564 12.7295 -9.63058 3.54166 -7.61258 0.235702 -0.46396 3.19615 -1.9808 -0.913426 4.69886 -2.23049 9.95336 0.0491107 1.13539 7.7841 -20.0488 -1.8899 -9.34134 -18.3581 -44.5659 9.98066 -0.837676 0.073146 -8.95808 0.431043 -4.20748 0.23707 -36.7061 14.9157 178.078 -66.7815 -143.983 -38.7201 -2.29847 -0.807714 8.43235 -3.92622 -0.0217423 -5.37756 2.34275 5.03318 
-4.79567 38.2582 -25.7653 -6.85842 4.11752 -131.411 -2.85717 11.5922 -5.20512 -2.65752 20.4117 -0.0318142 4.77749 -23.9372 1.01331 -4.34537 -18.9734 0.782123 -2.64073 16.9857 -9.59841 4.23897 -10.7658 0.399605 -0.52722 3.10334 -1.98657 -0.988048 4.54476 -2.1825 9.83177 0.0452649 1.07285 7.93328 -19.4361 -1.56091 -9.21947 -18.0882 -44.6281 10.0341 -0.920587 0.0808189 -9.0034 0.436606 -4.31881 -2.17974 -36.9321 16.5604 174.798 -68.3396 -124.02 -38.5517 -8.46073 -2.96363 8.31438 -3.75796 0.206699 -5.35662 2.71514 5.29085 
-5.56453 38.1064 -27.0379 -6.60102 4.82202 -131.167 -1.28996 16.2609 -4.77187 -2.29842 16.4962 -1.45371 4.49651 -24.4084 0.973 -2.93617 -19.8492 1.73525 -2.89685 21.3772 -10.649 4.50867 -8.32941 0.328473 0.0746674 3.11846 -1.95901 -0.763388 4.47875 -2.00349 9.68945 0.0439214 1.07263 8.07815 -18.341 -0.85922 -8.82395 -17.0653 -44.2911 10.1142 -0.980292 0.086751 -8.98405 0.436422 -4.33448 -3.40638 -37.0311 17.3101 173.682 -69.5063 -106.365 -43.3047 -10.5619 -4.20295 8.08176 -3.39506 0.469866 -5.31527 3.08524 5.55936 
-6.362 38.0814 -28.4161 -6.20644 5.7746 -131.156 0.527386 20.9597 -4.02941 -2.06839 12.7812 -2.63937 4.08687 -23.0509 0.833712 -1.13377 -18.623 2.64765 -2.5963 22.3155 -11.2326 3.9406 -2.56409 0.0882241 0.800128 3.05437 -1.84398 -0.290897 4.32311 -1.71244 9.57463 0.0462213 1.15716 8.23971 -16.6113 0.224782 -8.18971 -15.3747 -43.6589 10.1037 -0.993004 0.0877848 -8.73921 0.424684 -4.25916 -2.03566 -36.8258 16.8138 175.581 -69.7463 -107.994 -47.0692 -7.14287 -3.11421 7.82404 -2.90301 0.778958 -5.30223 3.45275 5.89692 
-7.19948 38.2138 -29.8808 -5.81003 6.46446 -131.355 2.11829 23.0895 -2.95724 -2.11366 13.7199 -3.54279 3.62018 -20.5592 0.656778 0.694008 -16.4071 3.69477 -2.53841 22.1254 -11.0321 3.54276 1.13223 -0.0350169 1.23738 2.75558 -1.5762 0.303405 3.91619 -1.3831 9.51797 0.0518048 1.31321 8.48258 -14.2405 1.63621 -7.39136 -13.2431 -42.903 9.90186 -0.908472 0.0786987 -8.41712 0.41262 -4.25664 0.704261 -36.3759 15.8433 177.996 -68.6125 -127.264 -47.9369 -1.31237 -0.583458 7.64003 -2.41431 1.14793 -5.35552 3.79955 6.35625 
-8.04978 38.4555 -31.3628 -5.3966 6.73786 -131.592 3.6063 21.3947 -1.72558 -1.89563 21.143 -4.34241 0.111922 -17.4306 0.0171571 2.16785 -14.088 4.58761 -2.5075 22.2014 -10.799 3.22513 1.03763 -0.0292121 1.3574 2.24833 -1.19967 0.906547 3.29431 -1.11568 9.5203 0.0586914 1.487 8.90176 -11.4832 3.24181 -6.52419 -10.9926 -42.1743 9.49457 -0.681407 0.0565887 -8.29926 0.413952 -4.45481 2.14558 -35.9506 15.4739 177.443 -66.8089 -148.862 -48.691 3.51136 1.58919 7.5898 -2.09001 1.58452 -5.49343 4.06501 6.96223 
-8.8654 38.6142 -32.7684 -4.84586 6.87247 -131.571 4.72435 16.6575 -0.192524 -1.00898 32.8175 -5.1388 -2.29142 -11.1379 -0.223452 3.34662 -12.7435 5.11207 -2.04987 23.9944 -11.2528 2.87447 -2.49209 0.0625358 1.50682 1.78494 -0.930879 1.44555 2.74163 -0.974989 9.55856 0.0641372 1.6113 9.61633 -8.79037 4.86419 -5.69946 -8.94559 -41.5332 8.98424 -0.308839 0.0242635 -8.47202 0.428862 -4.72444 0.545856 -35.8368 15.9738 174.786 -66.1211 -152.096 -48.0558 2.48465 1.10783 7.67343 -2.05191 2.08495 -5.71107 4.16573 7.70066 
